<?xml version="1.0" encoding="utf-8"?>
<!-- Generator: Adobe Illustrator 18.1.1, SVG Export Plug-In . SVG Version: 6.00 Build 0)  -->
<svg version="1.1" id="Layer_1" xmlns="http://www.w3.org/2000/svg" xmlns:xlink="http://www.w3.org/1999/xlink" x="0px" y="0px"
	 viewBox="0 0 1024 768" enable-background="new 0 0 1024 768" xml:space="preserve">
<path d="M616.9,361.6c5.2-18.7,4.7-36.9-5.5-54.1c-21.5-36.3-53.5-54.1-94.1-55.1c-41.2,0.6-72.2,17.2-94.5,50.5
	c-11.2,16.8-13.5,34.9-9.5,54c2.1,10,6.9,19.2,11.2,28.4c3.8,8.2,4.8,16.6,1.2,25.3c-1.7,4.2-5.1,7.1-7.7,10.5
	c-4.3,5.7-4.4,12.6,0,18.3c1.1,1.5,2.4,2.9,3.8,4.1c4.7,3.9,6.9,9,7,15.1c0,2,0.5,4,0.7,6c0.4,4.6,3.1,7.6,7,9.5
	c6.5,3.2,13.1,3.6,19.8,0.5c2.5-1.1,4.9-2.4,7.6-3.1c2.3-0.6,3.2,0,3.3,2.4c0.3,5.1-0.4,9.8-2.6,14.5c-3.6,7.5-4.2,15.6-4.5,23.7
	c-0.1,2.4,1,4,3.6,4.5c8.4,1.4,10.4-0.1,11.2-8.5c0-0.2,0.1-0.5,0.1-0.7c-0.1-3.2,1.7-4.6,4.7-4.4c3.1,0.3,1.6,2.9,1.7,4.4
	c0.4,6.9,1.3,7.9,7.9,7.5c2-0.1,3.3-0.9,3.5-3.1c0.2-1.9,0.5-3.7,0.5-5.6c0.1-1.7,0.9-2.1,2.4-2.2c1.5,0,2.4,0.6,2.3,2.2
	c0,1.5,0,3,0,4.5c0.1,1.6,0.8,2.9,2.3,3.5c6.4,2.7,11.1-0.2,11.1-7.1c0-3.4,1-5,4.7-5c3.6,0,4.5,1.9,4.3,5c-0.1,1.2-0.1,2.5,0.1,3.7
	c0.2,1.9,1.2,3.2,3.1,3.7c7.1,1.7,10-0.3,10.2-7.5c0-0.4,0-0.8,0-1.1c0.1-1.4,1-1.9,2.3-1.8c1.2,0.1,2.3,0.1,2.4,1.7
	c0.1,2,0.4,4,0.6,6c0.1,1.3,0.6,2.3,2,2.9c5,2,8.6-0.1,9.3-5.3c0.1-1-0.1-2,0.1-3c0.2-1.3-0.8-3.3,1.7-3.3c2.2,0,4.4,0.3,4.6,3.2
	c0.1,1.6,0.3,3.2,0.4,4.9c0.3,4.4,1.8,5.7,6.1,5.7c1.2,0,2.5-0.1,3.7-0.1c3.3,0.1,5-1.6,4.8-4.8c-0.4-8-1-16-4.5-23.4
	c-2.2-4.7-3-9.4-2.7-14.4c0.1-2.3,0.9-3.1,3.3-2.5c3.1,0.8,5.8,2.3,8.6,3.5c13.5,5.6,25.7-1.6,26.4-15.9c0.4-6.5,2.6-11.7,7.5-16
	c7.1-6.2,10.2-16,0.8-25.1c-2.3-2.3-4-5-5.3-8.1c-3.5-8.5-2.1-16.6,1.4-24.6C610.5,377.5,614.6,369.9,616.9,361.6z M498,436
	c-9.6,5.8-20.4,8.5-31,11.6c-3.3,1-6.7,1.8-10.1,2.5c-6,1.3-8.7,0.3-11.3-5.1c-3.1-6.5-5.4-13.4-5.5-20.8c0-6.5,0.9-6.1,6.7-9.3
	c8.5-4.6,15.8-1.9,23.5,1.2c9.7,3.9,18.8,9.1,27.8,14.3C501.9,432.8,501.9,433.7,498,436z M530.3,474.9c-1.2,0.6-1.9-0.3-2.6-0.9
	c-7.4-6.6-13.8-6-20.5-2.8c-1.5,0.7-2.7,1.7-3.7,3c-0.6,0.7-1.5,1.4-2.6,0.6c-0.9-0.6-1-1.4-0.8-2.3c1.3-8.5,3.6-16.5,9.8-22.9
	c1.7-1.8,3.1-4.2,6.1-2.7c1.8-0.9,3-0.2,4.2,0.9c7.1,6.8,10.1,15.5,11.4,25C531.6,473.7,531.2,474.5,530.3,474.9z M591.4,426.1
	c-0.6,6.7-2.6,14.4-7.1,21.4c-1.9,2.9-4.6,3.9-7.8,3.1c-14-3.4-28-6.8-41-13.5c-1-0.5-1.9-1.1-2.9-1.7c-2.2-1.3-2.8-2.6-0.1-4.2
	c12-7.1,24.2-13.8,37.5-18.1c4-1.3,7.8-1.2,11.5,0.9c1,0.5,2,1,3.1,1.3C591.1,417.3,591.5,417.9,591.4,426.1z"/>
</svg>
