<?xml version="1.0" encoding="utf-8"?>
<!-- Generator: Adobe Illustrator 18.1.1, SVG Export Plug-In . SVG Version: 6.00 Build 0)  -->
<svg version="1.1" id="Layer_1" xmlns="http://www.w3.org/2000/svg" xmlns:xlink="http://www.w3.org/1999/xlink" x="0px" y="0px"
	 viewBox="0 0 1024 768" enable-background="new 0 0 1024 768" xml:space="preserve">
<g>
	<g>
		<path fill="#FEFEFE" d="M512.8,1103c-248.9,0-497.8,0-746.6,0.1c-2.8,0-3.4-0.6-3.4-3.4c0.1-476.5,0.1-953,0-1429.5
			c0-2.8,0.6-3.4,3.4-3.4c497.8,0.1,995.5,0.1,1493.2,0c2.8,0,3.4,0.6,3.4,3.4c-0.1,476.5-0.1,953,0,1429.5c0,2.8-0.6,3.4-3.4,3.4
			C1010.5,1103,761.6,1103,512.8,1103z"/>
		<path fill="#2B2B2B" d="M1228.9,223.1c-13.3,9.7-26.5,19.4-39.8,29.1c-18.8,13.8-37.6,27.6-56.4,41.4c-27,19.8-54,39.5-81,59.2
			c-29.8,21.8-59.6,43.6-89.3,65.3c-27,19.7-54,39.5-81,59.2c-29.6,21.7-59.2,43.4-89,64.9c-3.5,2.5-3,4.3-2,7.4
			c20.5,62.6,40.9,125.2,61.3,187.7c8.3,25.3,16.6,50.7,24.8,76c8,24.5,16,49,24,73.6c8.2,25.2,16.5,50.4,24.7,75.7
			c8.2,25.2,16.5,50.4,24.7,75.7c2.5,7.8,5,15.6,7.6,23.3c0.3,1,0.5,1.9,0.4,2.9c-1.3-0.4-2.1-1.3-2.2-2.6c-2.9-1.8-4.8-4.7-6.7-7.4
			c-17-23.5-34-46.9-51-70.4c-15.6-21.6-31.1-43.2-46.7-64.7c-13.8-19-27.5-38-41.2-57.1c-17.8-24.7-35.7-49.4-53.5-74.1
			c-15.4-21.4-30.9-42.7-46.3-64.1c-16.4-22.7-32.7-45.4-49.1-68.1c-14.1-19.4-28.2-38.8-42.2-58.3c-15.6-21.6-31.1-43.1-46.7-64.7
			c-14.9-20.5-29.6-41.1-44.5-61.6c-4.4-6-9.5-11.6-12.6-18.5c0.6-1.7,2-3,2.9-4.5c18.9-6.2,37.8-12.2,56.7-18.2
			c13.2-4.2,26.4-8.4,39.6-12.6c40.1-12.9,80.2-25.6,120.3-38.5c30.1-9.7,60.2-19.3,90.3-28.9c42.6-13.6,85.2-27.2,127.8-40.9
			c30.2-9.7,60.5-19.3,90.7-29c42.5-13.6,85-27.1,127.5-40.7c16.9-5.4,33.8-10.7,50.7-16.2c1.8-0.6,3.6-0.9,5.5-1.2
			C1228.1,222.1,1229,221.9,1228.9,223.1z"/>
		<path fill="#6E6E6E" d="M515.6,452.8c3.8,5.2,7.7,10.4,11.5,15.6c4.9,6.8,9.8,13.7,14.7,20.5c7.4,10.3,14.8,20.6,22.2,30.9
			c5.7,7.9,11.6,15.7,17.3,23.6c7.3,10.1,14.4,20.2,21.7,30.3c4.3,6,8.8,12,13.1,18c7.5,10.4,14.8,20.8,22.3,31.2
			c5.6,7.8,11.4,15.4,17.1,23.2c7.3,10.1,14.5,20.2,21.7,30.3c5.6,7.8,11.3,15.5,16.9,23.3c7.4,10.2,14.7,20.5,22.1,30.8
			c5.8,8,11.7,15.8,17.5,23.8c7.2,10,14.3,20.2,21.6,30.2c5.8,8,11.7,15.8,17.5,23.8c5.2,7.2,10.2,14.6,15.4,21.8
			c6.9,9.5,13.9,18.9,20.7,28.3c9.6,13.2,19.2,26.4,28.7,39.7c9.2,12.8,18.2,25.6,27.4,38.3c7,9.8,14.3,19.4,21.3,29.2
			c7.2,10,14.2,20.1,21.4,30c8,11,16.1,22,24.1,33c7.7,10.5,15.5,21,23.2,31.6c0.4,0.5,0.6,1.1,0.9,1.6c-4.7-1.2-8-4.7-11.7-7.3
			c-13.8-9.6-27.4-19.7-41-29.5c-19.2-13.8-38.5-27.6-57.8-41.4c-14.2-10.2-28.4-20.3-42.6-30.5c-16.6-11.9-33.2-23.8-49.8-35.6
			c-13.2-9.4-26.4-18.8-39.6-28.3c-19.3-13.8-38.5-27.6-57.8-41.4c-12.6-9-25.3-17.9-37.9-27c-16.4-11.7-32.7-23.5-49.1-35.3
			c-14.3-10.2-28.6-20.5-42.9-30.7c-3.6-2.6-7.2-5.1-10.9-7.6c-1.4-0.6-1.6-1.8-1.8-3.1c-0.1-0.9-0.1-1.7-0.1-2.6
			c0-29.5-0.6-58.9-1-88.4c-0.3-22.6,0.3-45.2-0.7-67.8c-0.9-21.3,0.2-42.7-0.7-64c-0.9-20.2-0.4-40.4-0.5-60.6
			c-0.6-2.7,1.8-4.1,2.7-6.2c0.1-1,1.9,0.1,1.8-1.3C514.8,452.9,515.1,452.6,515.6,452.8z"/>
		<path fill="#0E0E0E" d="M345.2,224.1c1.4-7.3,4.1-14.2,6.3-21.2c6.8-21.1,13.5-42.2,20.3-63.3c7.3-22.6,14.6-45.2,21.8-67.9
			c6.5-20.3,13-40.6,19.5-60.8c6.7-21,13.5-42,20.2-63c6.5-20.3,13-40.6,19.6-60.9c6.5-20.2,13-40.3,19.4-60.5
			c6.8-21.1,13.6-42.2,20.4-63.3c5.9-18.4,11.8-36.8,17.8-55.3c0.3-0.9,0.6-1.8,0.9-2.7c1.6,0.2,1.4,1.5,1.6,2.6
			c0.2,1.4,0.1,2.7,0.1,4.1c0,27.5-0.4,55,0.1,82.5c1,55.7,0,111.5,0.9,167.2c0.8,50.9-0.3,101.7,0.7,152.6
			c1,55.5-0.1,111,0.9,166.5c0.5,30.4,0,60.7,0.5,91.1c-0.1,24.1-0.1,48.1-0.1,72.2c0,2.7-0.6,4.8-4,4.1c-3.4-0.7-5.1-3.3-7-5.9
			c-18.4-25.1-36.8-50.2-55.5-75.1c-12.5-16.7-25.1-33.3-37.4-50.2c-13.6-18.7-27.6-37.1-41.1-55.8c-5.3-7.4-10.7-14.8-16.2-22
			c-0.6-1.2-1.3-2.3-2.3-3.2c-1.5-1.8-3-3.6-4-5.7c-0.4-1.1-1.2-1.9-2-2.7C345.7,226.3,344.7,225.5,345.2,224.1z"/>
		<path fill="#0E0E0E" d="M73.2,1070.6c-0.5,0.5-0.9,1-2.2,2.4C128.8,896,186.2,720.1,243.6,544.2c0.6-1.7,2.2-1.9,3.6-2.4
			c22.6-7.7,45.1-15.5,67.7-23.3c41.4-14.5,82.8-28.8,124.2-43.3c21.7-7.6,43.4-15,65.1-22.7c0.8-0.3,1.7-0.5,2.5-0.6
			c1.2,0,2.4,0,3.2,1c0.6,1.9-0.7,3.1-1.6,4.4c-13.1,18.6-26.1,37.2-39.2,55.7c-12.1,17.3-24.3,34.5-36.4,51.7
			c-14.8,21-29.6,42-44.4,63.1c-14.7,20.9-29.4,41.9-44.2,62.8c-15.8,22.3-31.5,44.7-47.3,67c-25,35.4-50.1,70.7-75.3,106
			c-10.6,14.8-20.9,29.9-31.4,44.7c-0.7,0.9-1.5,1.7-2.2,2.5c-11.8,16.3-23.4,32.7-35.1,49.1c-16.6,23.3-33.1,46.6-49.7,69.9
			c-8.8,12.3-17.4,24.7-26.3,37C75.7,1068.2,74.8,1069.6,73.2,1070.6z"/>
		<path fill="#2C2C2C" d="M510.5,459.6c1.2,1.2,0.6,2.6,0.6,3.9c0.1,15.1-0.3,30.3,0.3,45.4c0.8,23,0,46,0.8,68.9
			c0.7,21.2-0.1,42.5,0.7,63.7c0.8,21.7,0,43.5,0.8,65.2c0.5,12.4,0.3,24.7,0.5,37.1c0,1.3,0,2.5,0.7,3.6
			c-12.5,9.2-25,18.4-37.6,27.6c-21.5,15.8-43,31.5-64.5,47.3c-31.8,23.3-63.5,46.5-95.3,69.8c-31.8,23.3-63.5,46.5-95.3,69.8
			c-28,20.5-55.9,40.9-83.9,61.4c-17.8,13.1-35.6,26.1-53.4,39.2c-0.6,0.4-1.2,1-2,0.9c-1-1.4,0.1-2.3,0.8-3.3
			c14.2-20.4,28.7-40.6,43-60.9c16.4-23.1,32.7-46.3,49.2-69.4c14.1-19.9,28.2-39.7,42.3-59.6c17.7-25,35.4-49.9,53.1-74.9
			c7.8-11,15.6-22,23.4-33c24.1-33.9,48.1-67.9,72.2-101.7c19.7-27.7,39.3-55.4,59-83.1c17.6-24.7,35.2-49.4,52.6-74.3
			c9.7-13.8,19.5-27.5,29.2-41.3C508.5,460.9,509.1,459.8,510.5,459.6z"/>
		<path fill="#6C6C6C" d="M506.7,452.7C434.1,478,361.5,503.2,289,528.5c-15.1,5.3-30.2,10.5-45.3,15.7c-5.1-0.6-8.2-4.7-12-7.3
			c-13.2-9.2-26.1-18.9-39.1-28.4c-17.1-12.4-34.2-24.8-51.4-37.2c-14-10-28-20-41.9-30c-18.6-13.5-37.1-27.1-55.7-40.6
			C27.8,389.4,12,378.3-3.6,367c-20.3-14.7-40.5-29.5-60.8-44.1c-16.9-12.3-33.9-24.4-50.9-36.6c-18.5-13.4-36.9-26.9-55.4-40.3
			c-8.2-5.9-16.5-11.7-24.8-17.6c-0.8-0.6-1.4-1.4-2.1-2.1c1.5-1.1,2.9-0.2,4.3,0.2c20.8,6.7,41.6,13.3,62.4,20
			c32.7,10.5,65.3,21,98,31.4c18.5,5.9,37.1,11.9,55.6,17.8c26.5,8.5,53.1,16.8,79.5,25.5c1.3,0.4,2.6,0.7,4,0.9
			c17.4,5.3,34.7,11.1,52.1,16.7c37.7,12.2,75.4,24.3,113,36.4c27.9,9,55.9,18,83.8,27c46.5,14.9,93,29.8,139.4,45
			c3,1,6,1.6,8.9,2.8C504.9,450.5,506.6,450.7,506.7,452.7z"/>
		<path fill="#444444" d="M106.2,323c-1.4,0.1-2.7-0.3-4-0.8c-23.9-7.7-47.9-15.5-71.8-23.2c-32.4-10.4-64.7-20.7-97.1-31.1
			c-25.2-8.1-50.5-16.2-75.7-24.3c-18.4-5.9-36.8-11.6-55.2-17.5c-3.3,0.1-5.2-1.9-6.8-4.4c21.9,0,43.7,0,65.5,0
			c46.6,0,93.2,0.1,139.7,0.2c0.7,0,1.5-0.1,2.2-0.2c5.3,0.8,10.7-0.1,16,0.5c15.8,0.1,31.7,0.2,47.5,0.2
			c56.6,0.1,113.1,0.1,169.7,0.2c1,0,2-0.1,3-0.2c5.3,0.8,10.7-0.1,16,0.5c16.6,0.1,33.2,0.2,49.8,0.2c11.6,0,23.2,0.1,34.8,0
			c1.8,0,3.4,0.2,5.1,0.8c0.6,0.9,1.2,1.7,1.8,2.6c0.4,1.1,1,1.9,2,2.4c1.3,1.9,2.6,3.9,3.9,5.8c0.4,1.5,1.8,2.3,2.3,3.7
			c3.7,1.4,4.4,5.3,6.4,8c6.2,8.3,12.7,16.5,18.6,25c6,8.6,12.1,17.1,18.5,25.5c10.8,14.1,20.9,28.7,31.6,43c18.7,25,37.3,50,56,75
			c7.2,9.7,14.3,19.5,21.4,29.2c0.7,1,1.8,1.6,2.8,2.4c0.8,1.7,2.6,3,2.3,5.2c-0.6,0.8-1.3,0.7-2,0.4c-3-2-6.4-2.8-9.7-3.8
			c-21-6.5-41.9-13.3-62.9-20.1c-42.8-13.8-85.7-27.4-128.5-41.2c-24.7-8-49.5-15.9-74.3-23.8c-41.1-13-82.1-26.1-123.1-39.4
			c-25.7-8.4-51.4-16.7-77.2-25c-42-13.6-84.1-27-126.1-40.7c-0.6-0.2-1.2-0.5-1.5-0.4c10.5,3.6,21.4,6.9,32.2,10.4
			c47.8,15.4,95.7,30.9,143.6,46.2c6.6,2.1,13.3,4.3,19.9,6.5C104.4,321.2,106.1,321.1,106.2,323z"/>
		<path fill="#707070" d="M1228.9,223.1c-1.2-1.3-2.4-0.1-3.4,0.2c-34.9,11.2-69.8,22.4-104.7,33.6c-42.4,13.6-84.8,27.1-127.2,40.6
			c-35.9,11.5-71.7,22.9-107.6,34.4c-36.2,11.6-72.5,23.1-108.7,34.7c-36.5,11.7-72.9,23.4-109.4,35
			c-42.5,13.6-85.1,27.2-127.6,40.7c-7.4,2.3-14.8,4.5-22.2,6.8c-1-0.8-1.1-1.9-1.1-3c0-6.3-0.2-12.7,0.1-19
			c0.6-1.6,1.4-2.3,2.2-0.2c0.5,1.3,0.3,2.7,0.3,4.1c0,4.6,0,9.2,0,14.2c14.6-20.4,28.9-40.6,43.2-60.7
			c24.3-34.1,48.6-68.2,72.8-102.3c13.8-19.4,27.8-38.8,41.5-58.3c1-1.4,1.8-3.7,4.3-2.2c183.2,0,366.3,0,550.6,0
			C1230.5,222.5,1229.7,222.8,1228.9,223.1z"/>
		<path fill="#2B2B2B" d="M681.5,221.7c-1.7-0.3-2.4,1-3.2,2.1c-23.7,33.3-47.4,66.6-71.1,99.9c-29,40.8-58.1,81.6-87.2,122.5
			c-0.2,0.3-0.5,0.5-1.5,1.3c0-6.3,0-11.9,0-17.6c0-1.5,0.4-3-0.5-4.4c-1.7-1.6-1.1-3.8-1.1-5.7c-0.1-29.6,0-59.2,0-88.8
			c0-2,0.2-4-0.5-5.9c-0.5-9.5-0.1-19-0.3-28.5c-0.1-9-0.1-18-0.2-27c-0.4-49.2-0.2-98.5-0.9-147.7c-0.5-35.6,0.1-71.2-0.5-106.8
			c-0.3-15.9,0.1-31.7-0.4-47.6c-0.4-13.2-0.1-26.5-0.3-39.7c-0.5-36.6-0.2-73.2-0.5-109.8c-0.2-19.6-0.8-39.2-0.6-58.8
			c0.5-2,0.4-4,0.4-6c0-15.2,0-30.5,0-45.7c0-1.7-0.3-3.5,0.6-5.2c0.3-0.5,0.7-0.5,1.1,0c0,2.8,1.4,5.1,2.2,7.7
			c10.6,32.9,21.1,65.9,31.7,98.8c9.8,30.4,19.6,60.7,29.4,91.1c9.5,29.4,19,58.9,28.4,88.3c9.5,29.5,19,59.1,28.6,88.6
			c9.7,30.2,19.5,60.5,29.2,90.7c5.6,17.4,11.3,34.8,16.9,52.3C681.5,220.5,681.5,221.1,681.5,221.7z"/>
		<path fill="#7E7E7E" d="M513.6-241.1c-0.4,13.5,0.4,27,0.5,40.4c0.3,32.9-0.2,65.7,0.4,98.6c0.7,36.4,0,72.7,0.7,109
			c0.8,35.2,0,70.5,0.7,105.7c0.8,36.1,0,72.2,0.8,108.3c0.7,34.7,0.4,69.5,0.6,104.2c0.7,4.7,0.2,9.5,0.3,14.2
			c0.1,8.6,0,17.2,0,25.9c0,1.2,0.3,2.5-1,3.5c-0.5-22.6-0.5-45.2-0.5-67.1c0.2,0.5,0,1.8,0,3c0,19.5,0,39,0,58.5c0,2-0.2,4,0.2,6
			c0.2,1.1,0.3,2.3-1.2,2.6c-0.1-26.4,0-52.7-0.4-79.1c-0.7-54.6-0.1-109.2-0.8-163.8c-0.6-53-0.1-105.9-0.8-158.9
			c-0.6-50.5,0-100.9-0.8-151.4c-0.6-35.9-0.1-71.7-0.5-107.5c0-2,0.5-4-0.5-5.9c0-1.2-0.9-2.8,1.3-3.1c1.1-0.1,1.2,0.7,1.2,1.4
			C513.7-278.1,514.2-259.6,513.6-241.1z"/>
		<path fill="#7E7E7E" d="M295.3,762.6c-6.8,9.8-13.6,19.7-20.6,29.4c-20.8,29.3-41.6,58.6-62.4,87.9
			c-34.3,48.4-68.7,96.8-103,145.3c-8.5,12-17,24-25.5,36c-0.4,0.6-0.6,1.3-0.9,2c-2.1,2.9-4.1,5.7-6.2,8.6
			c-0.4,0.6-0.8,1.4-1.7,0.9c-1.2-0.6-0.4-1.4-0.3-2.2c-0.4-0.4-0.5-0.9-0.1-1.3c9.7-12.1,18.1-25.1,27.1-37.6
			c16.3-22.7,32.3-45.5,48.4-68.3c10.3-14.6,20.7-29.1,30.9-43.7c2.1-3,4.7-5.8,6.1-9.3c4.8-6.6,9.8-13,14.4-19.7
			c11.5-17.2,23.8-33.8,35.7-50.7c18.8-26.8,38-53.5,57-80.2c0.6-0.8,1.2-1.5,1.9-2.3c1.5-0.1,1.2,1,0.9,1.7
			C296.3,760.1,295.6,761.3,295.3,762.6z"/>
		<path fill="#2E2E30" d="M187.2,910.3c0.8,1.6-0.6,2.4-1.3,3.4c-23,32.7-46.1,65.5-69.1,98.2c-12.8,18.2-25.8,36.4-38.5,54.7
			c-1.1,1.5-3.1,2-3.5,4.1c-0.5,0-1,0-1.5,0c5.2-7.5,10.4-15.1,15.7-22.6c11.4-16.1,23-32.1,34.4-48.2c20.5-28.9,41-57.8,61.4-86.6
			C185.5,912.1,186.4,911.2,187.2,910.3z"/>
		<path fill="#0F0F0F" d="M513.6-241.1c0-17.6-0.1-35.1-0.2-52.7c0-1.4,0.6-3-0.8-4.2c0.3-1.4,0.6-2.9,0.9-4.3
			c2.1,1.1,0.8,2.8,0.8,4.2c0,17.7,0,35.4-0.1,53.1C514.2-243.7,514.7-242.3,513.6-241.1z"/>
		<path fill="#FCFCFC" d="M19.2,222.3c-5.3-0.4-10.7,0.5-16-0.5C8.5,222,13.9,221.1,19.2,222.3z"/>
		<path fill="#FCFCFC" d="M255.5,223.1c-5.3-0.4-10.7,0.5-16-0.5C244.8,222.7,250.2,221.8,255.5,223.1z"/>
		<path fill="#FCFCFC" d="M514.3-298.1c-0.2-1.4,1-3.1-0.8-4.2c0.7-1,1.3-0.6,1.4,0.3c0.1,1.5,0,2.9,0,4.4
			C514.7-297.8,514.5-298,514.3-298.1z"/>
		<path fill="#797979" d="M515.1,371.7c1.1-1.3,0.6-2.9,0.6-4.3c0-21.2,0-42.5,0-63.7c0-1.2,0-2.5,0-3.7c0.2,0,0.4,0,0.6,0
			c0,22.6,0,45.3,0,67.9c0.3,0,0.6,0,0.9,0c0-14.2,0-28.5,0-42.7c0.7,0.9,0.6,1.9,0.6,2.9c0.1,32.5,0.1,65.1,0.2,97.6
			c0,7.8,0,15.7,0,23.5c-0.3,1.6-1.7,2.3-2.4,3.6c-0.2,0.3-0.4,0.6-0.7,0.8c-1.2,0.1-1.3-0.7-1.2-1.5c0.2-1.1-0.8-0.4-1-0.7
			c-0.8-1.6-2.6-2.6-2.2-4.7c4.6,0.6,4.6,0.6,4.6-4.1C515.2,418.9,515.1,395.3,515.1,371.7z"/>
		<path fill="#7A7A7A" d="M295.3,762.6c-0.8-1.2-0.3-2.3,0.5-3.3c0.5-0.7,1.3-1.3,0.2-2.1c16.2-23.1,32.4-46.1,48.6-69.1
			c30.8-43.7,61.6-87.4,92.3-131c24.3-34.5,48.6-69,72.8-103.5c0.4-0.5,0.9-0.5,1.5-0.2c0.2,0.3,0.3,0.7,0.3,1
			c-5.9,9.1-12.4,17.8-18.6,26.6c-13,18.5-26.1,36.9-39.1,55.4c-4.8,6.8-9.6,13.6-14.4,20.3c-1.9,2.4-3.5,5.1-5.3,7.6
			c-1.4,1.7-2.5,3.6-3.8,5.4c-3,4.2-6,8.4-8.9,12.6c-0.7,1-1.5,2-2.2,2.9c0.8-0.9,1.5-1.8,2.1-2.8c3-4.2,6-8.4,8.9-12.6
			c1.3-1.8,2.5-3.6,3.8-5.4c1.9-2.4,3.4-5.1,5.3-7.6c10.7-15,21.2-30,31.9-45c13.3-18.7,26.4-37.5,39.8-56.1
			c0.4-0.6,0.9-1.2,1.5-1.6c0.4-0.1,0.7-0.1,1,0.2c0.5,2.6-2.4,3.4-2.9,5.3c-29,40.9-58,81.8-87,122.8
			c-42.3,59.6-84.6,119.3-126.9,178.9C296.2,761.8,295.8,762.2,295.3,762.6z"/>
		<path fill="#363636" d="M511.3,454.2c0-0.3,0-0.5,0-0.8c-0.5-0.5-0.4-1,0-1.5c0.6,0,1.2-0.1,1.5-0.7c1.1-0.2,1.2-1.9,2.6-1.9
			c0.6,1.5-2.4,2.7-0.3,4.2c0,0.4,0.6,0.9,0,1.1c-0.4,0.1-1-0.2-1.5-0.4c0,0-0.4,0-0.4,0l-0.4,0
			C512.3,454.7,511.8,454.7,511.3,454.2z"/>
		<path fill="#C8C8CD" d="M355.3,238.5c-1.7-0.6-1.9-2.2-2.3-3.7C353.8,236,355.6,236.6,355.3,238.5z"/>
		<path fill="#CFCFD2" d="M349,229c-2.1,0.4-2.1-1-2-2.4C347.7,227.5,348.4,228.3,349,229z"/>
		<path fill="#353535" d="M511.2,452c0,0.5,0,1,0,1.5c-0.5,0-1,0-1.5,0c-0.8-1.2-2.1-0.7-3.1-0.8c-2.1-1.9-5-2.2-7.5-3
			c-30.7-10-61.4-19.9-92.2-29.8c-36.8-11.8-73.5-23.7-110.3-35.5c-27.9-9-55.8-17.9-83.6-26.9c-32.5-10.5-65-21-97.6-31.5
			c-3.1-1-6.2-2-9.2-3c-7.1-3.3-14.7-5.3-22.2-7.7c-16.3-5.4-32.7-10.6-49.1-15.9c-26.9-8.7-53.8-17.4-80.7-26.1
			c-16.1-5.2-32.2-10.4-48.6-15.6c1.2-1,2.1-0.4,3-0.1c24.1,7.8,48.1,15.6,72.2,23.3c31.7,10.2,63.4,20.2,95,30.4
			c19.1,6.1,38.2,12.3,57.3,18.4c25.4,8.1,50.8,16.2,76.2,24.3c19.1,6.1,38.2,12.3,57.3,18.4c26.1,8.4,52.2,16.7,78.3,25
			c25.5,8.2,51,16.4,76.5,24.5c25.3,8.1,50.5,16.1,75.8,24.2c3.7,1.2,7.4,2.3,11,3.5C509.6,450.1,511.1,450.2,511.2,452z"/>
		<path fill="#353535" d="M-112.5,250.8c4.9,1.6,9.8,3.2,14.7,4.8c-0.1,0.3-0.2,0.6-0.3,0.8c-4.9-1.6-9.9-3.2-14.8-4.8
			C-112.7,251.3-112.6,251.1-112.5,250.8z"/>
		<path fill="#353535" d="M-133.5,244c4.2,1.4,8.4,2.7,12.5,4.1C-125.5,248-129.5,246.1-133.5,244z"/>
		<path fill="#353535" d="M-146.6,240.2c-3,0.1-5.5-1.4-8.3-2.3C-151.8,237.6-149.3,239.2-146.6,240.2z"/>
		<path fill="#686868" d="M516.7,447.4c0-19.7,0-39.4,0-59.1c0.1,0,0.3,0,0.4,0c0,19.7,0,39.3,0,59
			C516.9,447.3,516.8,447.4,516.7,447.4z"/>
		<path fill="#515151" d="M511.3,454.2c0.5,0,1,0,1.5,0c-23.8,33.6-47.6,67.1-71.4,100.7c-0.6,0.8-1.4,1.4-2.1,2.1l-0.1-0.1
			c3.4-6.8,8.4-12.6,12.7-18.8c10.4-15.1,21-30,31.6-44.9C492.7,480.2,502,467.2,511.3,454.2z"/>
		<path fill="#575757" d="M421.2,582.5c2.3-4.7,5.4-8.9,9-12.7l0.1,0.1C427.9,574.5,424.9,578.7,421.2,582.5L421.2,582.5z"/>
		<path fill="#515151" d="M439.3,557c-1.3,2.8-2.7,5.5-5.3,7.5l-0.1,0C435.2,561.6,436.7,558.9,439.3,557
			C439.2,557,439.3,557,439.3,557z"/>
		<path fill="#595959" d="M412.2,595.2c0.5-2.2,2-3.7,3.5-5.2C415.2,592.1,414.2,594,412.2,595.2L412.2,595.2z"/>
		<path fill="#5C5C5C" d="M402.4,608.3c-0.1,1.9-0.9,3.5-2.9,4.1C400.5,611.1,401.5,609.7,402.4,608.3z"/>
		<path fill="#595959" d="M412.3,595.3c-0.5,2-1.8,3.5-3.4,4.7C409.5,598.1,410.4,596.3,412.3,595.3
			C412.2,595.2,412.3,595.3,412.3,595.3z"/>
		<path fill="#585858" d="M421.3,582.5c-0.5,2-1.9,3.4-3.3,4.7C418.5,585.3,419.4,583.6,421.3,582.5
			C421.2,582.5,421.3,582.5,421.3,582.5z"/>
		<path fill="#515151" d="M434,564.5c-0.7,2.1-1.9,4-3.8,5.3c0,0-0.1-0.1-0.1-0.1C430.9,567.6,432,565.7,434,564.5
			C434,564.5,434,564.5,434,564.5z"/>
		<path fill="#595959" d="M406.6,603.2c0.1,1.2-0.5,1.7-1.4,2.2C404.7,604,405.9,603.8,406.6,603.2z"/>
		<path fill="#5C5C5C" d="M397.6,615.8c0.3,1.4-0.8,1.6-1.4,2.9C395.9,616.9,396.6,616.4,397.6,615.8z"/>
		<path fill="#5D5D5D" d="M394,621c0.1,1.5-0.7,1.9-1.7,2.6C392.2,622.1,393,621.7,394,621z"/>
		<path fill="#5D5D5D" d="M388.8,628.5c0,1.4-0.7,1.9-1.7,2.5C386.9,629.7,387.6,629.1,388.8,628.5z"/>
		<path fill="#5E5E5E" d="M385,634c0,1.2-0.6,1.8-1.7,2C383.3,634.8,383.9,634.3,385,634z"/>
	</g>
</g>
</svg>
